<?xml version="1.0" encoding="utf-8"?>
<!-- Generator: Adobe Illustrator 16.0.0, SVG Export Plug-In . SVG Version: 6.00 Build 0)  -->
<!DOCTYPE svg PUBLIC "-//W3C//DTD SVG 1.1//EN" "http://www.w3.org/Graphics/SVG/1.1/DTD/svg11.dtd">
<svg version="1.1" id="Layer_1" xmlns="http://www.w3.org/2000/svg" xmlns:xlink="http://www.w3.org/1999/xlink" x="0px" y="0px"
	 width="503.279px" height="85.533px" viewBox="0 0 503.279 85.533" enable-background="new 0 0 503.279 85.533"
	 xml:space="preserve">
<g>
	<polygon points="450.956,85.533 447.229,81.912 448.042,46.39 474.189,4.662 485.694,6.753 492.652,12.338 492.088,39.66 
		497.151,41.627 503.279,56.774 488.136,64.015 475.902,64.604 473.427,71.345 457.704,75.424 	"/>
	<polyline fill="#266EB5" points="481.009,0 467.382,23.049 475.601,23.158 468.046,35.499 475.979,35.499 464.329,55.035 
		489.204,29.349 480.169,29.349 488.449,18.887 479.286,18.664 494.329,0 	"/>
</g>
<path d="M19.945,34.772c0,1.116-0.331,2.026-1.531,2.026c-1.2,0-1.531-0.911-1.531-2.026V15.405l-5.337,10.718
	c-0.249,0.455-0.662,1.033-1.573,1.033c-0.911,0-1.324-0.578-1.573-1.033L3.062,15.405v19.367c0,1.116-0.331,2.026-1.531,2.026
	c-1.2,0-1.531-0.911-1.531-2.026V9.735c0-1.242,0.538-1.904,1.449-1.904c0.704,0,1.075,0.249,1.448,0.911l7.076,14.484l7.076-14.484
	c0.372-0.662,0.745-0.911,1.447-0.911c0.911,0,1.448,0.662,1.448,1.904L19.945,34.772L19.945,34.772z"/>
<path d="M42.162,28.067H31.899l-2.73,7.572c-0.289,0.829-0.829,1.159-1.491,1.159c-0.909,0-1.447-0.622-1.447-1.573
	c0-0.249,0.041-0.496,0.123-0.786L35.79,8.991c0.289-0.827,0.662-1.16,1.242-1.16c0.578,0,0.951,0.333,1.24,1.16l9.435,25.448
	c0.083,0.291,0.125,0.538,0.125,0.786c0,0.951-0.538,1.573-1.448,1.573c-0.662,0-1.2-0.331-1.491-1.159L42.162,28.067z
	 M32.892,25.254h8.276l-4.137-11.628L32.892,25.254z"/>
<path d="M58.839,33.985V10.646h-4.843c-1.033,0-1.862-0.291-1.862-1.406c0-1.118,0.829-1.408,1.862-1.408h12.746
	c1.035,0,1.862,0.291,1.862,1.408c0,1.116-0.827,1.406-1.862,1.406h-4.841v23.339h4.841c1.035,0,1.862,0.289,1.862,1.407
	c0,1.117-0.827,1.406-1.862,1.406H53.996c-1.033,0-1.862-0.289-1.862-1.406c0-1.118,0.829-1.407,1.862-1.407H58.839z"/>
<path d="M75.876,9.86c0-1.118,0.538-2.028,1.697-2.028c0.951,0,1.324,0.415,1.78,1.035l12.58,21.642V9.86
	c0-1.118,0.33-2.028,1.529-2.028c1.2,0,1.533,0.911,1.533,2.028v24.912c0,1.116-0.538,2.026-1.697,2.026
	c-0.951,0-1.324-0.413-1.778-1.035L78.939,14.122v20.649c0,1.116-0.331,2.026-1.531,2.026c-1.202,0-1.533-0.911-1.533-2.026
	L75.876,9.86L75.876,9.86z"/>
<path d="M122.252,7.832c1.032,0,1.862,0.291,1.862,1.408c0,1.116-0.83,1.406-1.862,1.406h-13.615v9.849h10.056
	c1.035,0,1.862,0.289,1.862,1.407c0,1.117-0.827,1.406-1.862,1.406h-10.056v10.677h14.193c1.035,0,1.862,0.289,1.862,1.407
	c0,1.117-0.827,1.406-1.862,1.406h-15.228c-1.159,0-2.026-0.702-2.026-1.946V9.777c0-1.242,0.867-1.946,2.026-1.946L122.252,7.832
	L122.252,7.832z"/>
<path d="M134.896,30.467c0-1.407,0.911-2.482,2.524-2.482c0.911,0,1.573,0.331,2.067,1.033c1.657,2.443,3.559,3.726,7.202,3.726
	c3.6,0,5.71-1.615,5.71-3.973c0-6.994-16.428-2.11-16.428-13.035c0-5.67,4.964-8.318,10.261-8.318c4.594,0,7.616,1.408,9.437,4.47
	c0.33,0.578,0.495,1.116,0.495,1.613c0,1.655-1.032,2.483-2.44,2.483c-0.746,0-1.573-0.456-2.07-1.284
	c-1.24-1.986-2.938-2.813-5.421-2.813c-3.186,0-5.377,1.2-5.377,3.764c0,5.794,16.428,2.194,16.428,12.788
	c0,5.875-4.967,8.772-10.593,8.772c-5.505,0-8.896-1.613-11.175-4.965C135.101,31.626,134.896,31.004,134.896,30.467z"/>
<path d="M181.825,7.832c1.408,0,2.319,0.787,2.319,2.235c0,1.449-0.911,2.235-2.319,2.235h-7.034v22.056
	c0,1.449-0.992,2.441-2.44,2.441c-1.448,0-2.443-0.993-2.443-2.441V12.302h-7.035c-1.408,0-2.315-0.786-2.315-2.235
	c0-1.448,0.908-2.235,2.315-2.235H181.825L181.825,7.832z"/>
<path d="M190.307,34.977c-0.413,1.16-1.243,1.821-2.235,1.821c-1.448,0-2.443-0.951-2.443-2.483c0-0.289,0.084-0.745,0.208-1.116
	l9.061-23.67c0.498-1.282,1.16-1.944,2.278-1.944c1.116,0,1.778,0.662,2.275,1.944l9.061,23.67c0.125,0.371,0.208,0.827,0.208,1.116
	c0,1.532-0.994,2.483-2.443,2.483c-0.992,0-1.818-0.662-2.235-1.821l-2.275-6.083h-9.186L190.307,34.977z M197.177,16.563
	l-2.94,7.863h5.878L197.177,16.563z"/>
<path d="M227.17,7.832c6.621,0,9.682,3.932,9.682,8.94c0,4.55-2.07,6.785-5.091,8.109l4.843,7.738
	c0.578,0.951,0.662,1.449,0.662,1.904c0,1.406-0.951,2.275-2.275,2.275c-1.2,0-2.03-0.744-2.524-1.573l-5.834-9.518h-5.505v8.649
	c0,1.449-1.035,2.441-2.44,2.441c-1.449,0-2.443-0.993-2.443-2.441V10.397c0-1.613,0.951-2.566,2.567-2.566L227.17,7.832
	L227.17,7.832z M221.127,12.301v8.938h5.67c3.475,0,5.172-1.407,5.172-4.468c0-3.063-1.697-4.47-5.172-4.47H221.127z"/>
<path d="M261.938,7.832c1.404,0,2.315,0.787,2.315,2.235c0,1.449-0.911,2.235-2.315,2.235h-7.033v22.056
	c0,1.449-0.996,2.441-2.444,2.441c-1.449,0-2.44-0.993-2.44-2.441V12.302h-7.034c-1.408,0-2.319-0.786-2.319-2.235
	c0-1.448,0.911-2.235,2.319-2.235H261.938L261.938,7.832z"/>
<path d="M291.058,25.75c0,6.663-3.229,11.462-10.802,11.462s-10.799-4.799-10.799-11.462V10.275c0-1.449,0.992-2.443,2.438-2.443
	c1.448,0,2.443,0.995,2.443,2.443v15.641c0,4.51,2.523,6.828,5.916,6.828c3.395,0,5.918-2.317,5.918-6.828V10.275
	c0-1.449,0.992-2.443,2.439-2.443s2.443,0.995,2.443,2.443L291.058,25.75L291.058,25.75z"/>
<path d="M309.644,7.832c6.951,0,10.51,3.228,10.51,9.145c0,5.918-3.559,9.146-10.51,9.146h-5.709v8.234
	c0,1.449-1.035,2.441-2.443,2.441c-1.449,0-2.439-0.993-2.439-2.441V10.398c0-1.613,0.951-2.566,2.564-2.566H309.644L309.644,7.832z
	 M303.935,12.301v9.352h5.998c3.891,0,5.338-1.779,5.338-4.676c0-2.896-1.447-4.675-5.338-4.675L303.935,12.301L303.935,12.301z"/>
<path d="M173.963,49.162c3.848,0,6.705,0.95,9.229,3.478c0.703,0.703,0.951,1.488,0.951,2.15c0,1.324-0.992,2.277-2.191,2.277
	c-0.622,0-1.244-0.291-1.862-0.911c-1.865-1.862-3.852-2.524-6.127-2.524c-5.296,0-7.488,5.297-7.488,10.428
	s2.191,10.43,7.488,10.43c2.275,0,4.262-0.662,6.127-2.525c0.618-0.62,1.24-0.908,1.862-0.908c1.2,0,2.191,0.95,2.191,2.274
	c0,0.662-0.249,1.446-0.951,2.151c-2.524,2.523-5.381,3.476-9.229,3.476c-7.283,0-12.455-5.212-12.455-14.896
	C161.508,54.377,166.681,49.162,173.963,49.162z"/>
<path d="M202.122,49.575c6.621,0,9.683,3.932,9.683,8.939c0,4.551-2.067,6.785-5.089,8.109l4.84,7.738
	c0.582,0.949,0.662,1.447,0.662,1.902c0,1.406-0.951,2.275-2.275,2.275c-1.2,0-2.026-0.745-2.524-1.572l-5.834-9.519h-5.502v8.649
	c0,1.447-1.035,2.44-2.443,2.44c-1.449,0-2.44-0.993-2.44-2.44V52.142c0-1.613,0.951-2.565,2.564-2.565L202.122,49.575
	L202.122,49.575z M196.082,54.044v8.938h5.667c3.478,0,5.172-1.405,5.172-4.467c0-3.062-1.694-4.471-5.172-4.471H196.082z"/>
<path d="M237.566,49.575c1.405,0,2.315,0.787,2.315,2.234c0,1.448-0.911,2.234-2.315,2.234h-12.375v7.366h9.021
	c1.408,0,2.319,0.786,2.319,2.233c0,1.449-0.911,2.235-2.319,2.235h-9.021v8.192h13.161c1.405,0,2.316,0.787,2.316,2.234
	s-0.911,2.234-2.316,2.234h-15.477c-1.613,0-2.567-0.951-2.567-2.564V52.142c0-1.613,0.954-2.564,2.567-2.564L237.566,49.575
	L237.566,49.575z"/>
<path d="M249.761,76.72c-0.413,1.16-1.24,1.822-2.235,1.822c-1.448,0-2.44-0.951-2.44-2.484c0-0.289,0.084-0.744,0.205-1.115
	l9.063-23.67c0.498-1.281,1.16-1.943,2.275-1.943c1.118,0,1.78,0.662,2.273,1.943l9.064,23.67c0.125,0.371,0.205,0.826,0.205,1.115
	c0,1.533-0.99,2.484-2.439,2.484c-0.996,0-1.821-0.662-2.235-1.822l-2.274-6.082h-9.188L249.761,76.72z M256.631,58.306
	l-2.938,7.863h5.875L256.631,58.306z"/>
<path d="M289.446,49.575c1.404,0,2.313,0.787,2.313,2.234c0,1.448-0.911,2.234-2.313,2.234h-7.035v22.057
	c0,1.448-0.996,2.441-2.443,2.441c-1.449,0-2.439-0.993-2.439-2.441V54.044h-7.034c-1.408,0-2.318-0.786-2.318-2.234
	c0-1.449,0.91-2.234,2.318-2.234H289.446L289.446,49.575z"/>
<path d="M313.897,49.575c1.408,0,2.319,0.787,2.319,2.234c0,1.448-0.911,2.234-2.319,2.234h-12.369v7.366h9.021
	c1.407,0,2.315,0.786,2.315,2.233c0,1.449-0.908,2.235-2.315,2.235h-9.021v8.192h13.156c1.408,0,2.319,0.787,2.319,2.234
	s-0.911,2.234-2.319,2.234h-15.478c-1.612,0-2.563-0.951-2.563-2.564V52.142c0-1.613,0.951-2.564,2.563-2.564L313.897,49.575
	L313.897,49.575z"/>
<path d="M338.392,58.39l-5.336,18.828c-0.289,0.951-0.662,1.324-1.408,1.324c-0.828,0-1.285-0.456-1.405-1.324l-3.396-25.242
	c-0.039-0.248-0.039-0.414-0.039-0.498c0-1.28,0.618-1.902,1.448-1.902c0.867,0,1.404,0.537,1.528,1.447l2.359,19.699l4.633-16.305
	c0.289-0.995,0.912-1.408,1.613-1.408c0.703,0,1.324,0.413,1.613,1.408l4.635,16.305l2.359-19.699
	c0.124-0.91,0.662-1.447,1.531-1.447c0.826,0,1.449,0.622,1.449,1.902c0,0.084,0,0.25-0.043,0.498l-3.393,25.242
	c-0.124,0.869-0.581,1.324-1.408,1.324c-0.746,0-1.115-0.373-1.408-1.324L338.392,58.39z"/>
<path d="M374.925,49.575c1.035,0,1.862,0.291,1.862,1.408c0,1.115-0.827,1.406-1.862,1.406H361.31v9.85h10.057
	c1.035,0,1.861,0.289,1.861,1.406c0,1.116-0.826,1.405-1.861,1.405H361.31v10.679h14.196c1.032,0,1.861,0.289,1.861,1.405
	c0,1.118-0.829,1.407-1.861,1.407h-15.229c-1.157,0-2.028-0.703-2.028-1.945V51.521c0-1.242,0.871-1.944,2.028-1.944L374.925,49.575
	L374.925,49.575z"/>
<path d="M400.969,49.575c1.035,0,1.862,0.291,1.862,1.408c0,1.115-0.827,1.406-1.862,1.406h-13.614v9.85h10.056
	c1.035,0,1.862,0.289,1.862,1.406c0,1.116-0.827,1.405-1.862,1.405h-10.056v10.679h14.195c1.032,0,1.862,0.289,1.862,1.405
	c0,1.118-0.83,1.407-1.862,1.407h-15.229c-1.158,0-2.028-0.703-2.028-1.945V51.521c0-1.242,0.87-1.944,2.028-1.944L400.969,49.575
	L400.969,49.575z"/>
<path d="M421.081,60.666l9.847,15.353c0.249,0.414,0.373,0.912,0.373,1.24c0,0.828-0.662,1.284-1.448,1.284
	c-0.538,0-1.075-0.289-1.528-0.993l-9.271-14.359l-4.718,5.67v7.656c0,1.116-0.33,2.027-1.533,2.027c-1.2,0-1.528-0.911-1.528-2.027
	V51.604c0-1.117,0.329-2.027,1.528-2.027c1.203,0,1.533,0.91,1.533,2.027v12.912l11.463-14.152c0.414-0.538,0.908-0.787,1.405-0.787
	c0.705,0,1.407,0.457,1.407,1.283c0,0.373-0.165,0.869-0.538,1.324L421.081,60.666z"/>
<path d="M156.455,74.693l-1.372-1.509l0.634-0.521c0.74-0.622,1.072-1.392,1.107-2.052c0.068-1.241-0.788-2.241-1.987-2.307
	c-0.535-0.029-1.208,0.142-1.771,0.607l-1.053,0.856l-0.813-0.909l-4.966-5.502c3.807-2.358,5.131-4.554,5.131-7.366
	c0-3.765-2.566-6.828-7.407-6.828c-4.138,0-7.449,2.895-7.449,7.201c0,2.521,1.158,4.385,2.607,6.207
	c-3.559,2.605-4.552,5.213-4.552,7.984c0,5.13,4.015,8.4,9.228,8.4c3.145,0,5.711-1.118,7.697-2.896l1.366,1.486
	c0.662,0.705,1.448,0.994,2.11,0.994c1.242,0,2.194-0.91,2.194-2.111C157.159,75.893,156.951,75.23,156.455,74.693z M143.958,53.63
	c1.779,0,2.772,1.075,2.772,2.688c0,1.41-0.869,2.403-3.476,3.851c-1.283-1.447-2.111-2.524-2.11-3.809
	C141.144,54.581,142.467,53.63,143.958,53.63z M143.543,74.488c-2.276,0-4.097-1.369-4.097-3.893c0-1.571,0.496-3.061,2.689-4.717
	l6.331,6.91C147.226,73.825,145.611,74.487,143.543,74.488z"/>
</svg>
