<?xml version="1.0" encoding="utf-8"?>
<!-- Generator: Adobe Illustrator 16.0.0, SVG Export Plug-In . SVG Version: 6.00 Build 0)  -->
<!DOCTYPE svg PUBLIC "-//W3C//DTD SVG 1.1//EN" "http://www.w3.org/Graphics/SVG/1.1/DTD/svg11.dtd">
<svg version="1.1" id="Layer_1" xmlns="http://www.w3.org/2000/svg" xmlns:xlink="http://www.w3.org/1999/xlink" x="0px" y="0px"
	 width="295.3px" height="157.146px" viewBox="0 0 295.3 157.146" enable-background="new 0 0 295.3 157.146" xml:space="preserve">
<g>
	<polygon points="223.526,157.147 216.839,151.722 215.194,99.166 251.509,38.21 271.216,41.499 279.242,49.889 279.242,88.581 
		286.365,91.321 295.3,113.403 260.451,121.61 253.333,135.661 237.824,136.757 	"/>
	<polyline fill="#266EB5" points="264.384,28.074 244.519,61.674 256.503,61.84 245.485,79.825 257.052,79.825 240.063,108.305 
		276.326,70.854 263.156,70.854 275.232,55.606 261.873,55.281 283.796,28.074 	"/>
</g>
<path d="M21.931,27.008c0,1.117-0.331,2.028-1.532,2.028c-1.2,0-1.531-0.911-1.531-2.028V7.643L13.53,18.361
	c-0.248,0.455-0.662,1.033-1.572,1.033c-0.911,0-1.324-0.578-1.573-1.033L5.047,7.643v19.365c0,1.117-0.331,2.028-1.532,2.028
	c-1.2,0-1.531-0.911-1.531-2.028V1.973c0-1.24,0.538-1.902,1.448-1.902c0.704,0,1.076,0.247,1.449,0.909l7.076,14.483L19.033,0.98
	c0.372-0.662,0.745-0.909,1.448-0.909c0.91,0,1.449,0.662,1.449,1.902L21.931,27.008L21.931,27.008z"/>
<path d="M46.878,20.305H36.616l-2.73,7.573c-0.29,0.827-0.828,1.158-1.49,1.158c-0.91,0-1.449-0.62-1.449-1.573
	c0-0.247,0.041-0.496,0.125-0.786l9.435-25.448c0.29-0.829,0.662-1.158,1.242-1.158c0.579,0,0.951,0.33,1.241,1.158l9.435,25.448
	c0.083,0.291,0.125,0.539,0.125,0.786c0,0.953-0.538,1.573-1.449,1.573c-0.662,0-1.2-0.331-1.49-1.158L46.878,20.305z
	 M37.609,17.491h8.276L41.748,5.863L37.609,17.491z"/>
<path d="M64.663,26.151V2.813h-4.841c-1.034,0-1.862-0.289-1.862-1.405C57.96,0.289,58.788,0,59.822,0h12.745
	c1.035,0,1.862,0.289,1.862,1.407c0,1.116-0.827,1.405-1.862,1.405h-4.841v23.338h4.841c1.035,0,1.862,0.291,1.862,1.407
	c0,1.117-0.827,1.406-1.862,1.406H59.822c-1.034,0-1.862-0.289-1.862-1.406s0.828-1.407,1.862-1.407H64.663z"/>
<path d="M83.314,2.097c0-1.118,0.538-2.027,1.696-2.027c0.952,0,1.324,0.414,1.779,1.034l12.58,21.643V2.097
	c0-1.118,0.331-2.027,1.531-2.027c1.2,0,1.531,0.909,1.531,2.027v24.911c0,1.117-0.538,2.028-1.696,2.028
	c-0.952,0-1.324-0.414-1.78-1.035L86.375,6.359v20.649c0,1.117-0.331,2.028-1.531,2.028c-1.2,0-1.531-0.911-1.531-2.028
	L83.314,2.097L83.314,2.097z"/>
<path d="M130.012,0.07c1.034,0,1.862,0.289,1.862,1.407c0,1.117-0.828,1.406-1.862,1.406h-13.615v9.849h10.056
	c1.035,0,1.862,0.289,1.862,1.407c0,1.117-0.827,1.406-1.862,1.406h-10.056v10.676h14.194c1.034,0,1.863,0.291,1.863,1.408
	s-0.829,1.407-1.863,1.407h-15.228c-1.159,0-2.027-0.704-2.027-1.944V2.015c0-1.242,0.869-1.944,2.027-1.944L130.012,0.07
	L130.012,0.07L130.012,0.07z"/>
<path d="M0.33,64.082c0-1.406,0.911-2.482,2.524-2.482c0.911,0,1.573,0.331,2.069,1.035c1.655,2.441,3.559,3.725,7.2,3.725
	c3.601,0,5.711-1.614,5.711-3.973c0-6.993-16.428-2.11-16.428-13.034c0-5.671,4.966-8.317,10.262-8.317
	c4.594,0,7.614,1.406,9.435,4.47c0.331,0.58,0.497,1.118,0.497,1.613c0,1.654-1.035,2.482-2.442,2.482
	c-0.745,0-1.572-0.455-2.069-1.283c-1.241-1.985-2.938-2.812-5.42-2.812c-3.187,0-5.379,1.2-5.379,3.767
	c0,5.792,16.428,2.192,16.428,12.786c0,5.875-4.966,8.772-10.594,8.772c-5.503,0-8.896-1.613-11.172-4.968
	C0.537,65.243,0.33,64.622,0.33,64.082z"/>
<path d="M47.768,41.449c1.406,0,2.317,0.784,2.317,2.231c0,1.448-0.911,2.235-2.317,2.235h-7.035v22.056
	c0,1.449-0.993,2.441-2.441,2.441c-1.449,0-2.442-0.992-2.442-2.441V45.917h-7.035c-1.407,0-2.317-0.787-2.317-2.235
	s0.911-2.231,2.317-2.231L47.768,41.449L47.768,41.449z"/>
<path d="M56.224,68.594c-0.413,1.158-1.242,1.82-2.235,1.82c-1.448,0-2.441-0.951-2.441-2.482c0-0.291,0.083-0.745,0.207-1.116
	l9.062-23.67c0.496-1.281,1.158-1.943,2.276-1.943c1.117,0,1.779,0.662,2.275,1.943l9.062,23.67
	c0.125,0.371,0.207,0.825,0.207,1.116c0,1.531-0.993,2.482-2.441,2.482c-0.993,0-1.82-0.662-2.234-1.82l-2.276-6.083H58.5
	L56.224,68.594z M63.094,50.179l-2.938,7.863h5.875L63.094,50.179z"/>
<path d="M93.821,41.449c6.621,0,9.683,3.931,9.683,8.937c0,4.553-2.069,6.787-5.089,8.111l4.841,7.737
	c0.579,0.951,0.662,1.448,0.662,1.903c0,1.406-0.952,2.275-2.276,2.275c-1.2,0-2.027-0.744-2.524-1.572l-5.834-9.517h-5.503v8.646
	c0,1.449-1.035,2.441-2.441,2.441c-1.449,0-2.442-0.992-2.442-2.441V44.013c0-1.612,0.952-2.562,2.566-2.562L93.821,41.449
	L93.821,41.449z M87.779,45.917v8.938h5.669c3.476,0,5.172-1.405,5.172-4.471c0-3.062-1.696-4.468-5.172-4.468L87.779,45.917
	L87.779,45.917z"/>
<path d="M130.137,41.449c1.406,0,2.317,0.784,2.317,2.231c0,1.448-0.911,2.235-2.317,2.235h-7.035v22.056
	c0,1.449-0.993,2.441-2.441,2.441c-1.448,0-2.441-0.992-2.441-2.441V45.917h-7.035c-1.407,0-2.317-0.787-2.317-2.235
	s0.911-2.231,2.317-2.231L130.137,41.449L130.137,41.449z"/>
<path d="M160.384,59.366c0,6.661-3.229,11.463-10.801,11.463c-7.572,0-10.8-4.802-10.8-11.463V43.889
	c0-1.447,0.993-2.438,2.442-2.438c1.448,0,2.441,0.991,2.441,2.438v15.645c0,4.509,2.524,6.827,5.917,6.827
	c3.395,0,5.918-2.317,5.918-6.827V43.889c0-1.447,0.99-2.438,2.439-2.438c1.448,0,2.439,0.991,2.439,2.438v15.479L160.384,59.366
	L160.384,59.366z"/>
<path d="M179.376,41.449c6.951,0,10.512,3.227,10.512,9.145c0,5.917-3.561,9.146-10.512,9.146h-5.713v8.232
	c0,1.449-1.033,2.441-2.439,2.441c-1.448,0-2.441-0.992-2.441-2.441V44.014c0-1.612,0.953-2.562,2.566-2.562L179.376,41.449
	L179.376,41.449z M173.664,45.917v9.352h6.002c3.889,0,5.338-1.778,5.338-4.675c0-2.896-1.449-4.677-5.338-4.677H173.664z"/>
<path d="M38.954,82.413c3.848,0,6.704,0.953,9.228,3.477c0.703,0.703,0.952,1.49,0.952,2.152c0,1.324-0.993,2.274-2.193,2.274
	c-0.621,0-1.242-0.289-1.863-0.909c-1.862-1.861-3.848-2.523-6.124-2.523c-5.297,0-7.49,5.297-7.49,10.426
	c0,5.134,2.193,10.432,7.49,10.432c2.276,0,4.262-0.662,6.124-2.523c0.621-0.623,1.242-0.912,1.863-0.912
	c1.2,0,2.193,0.951,2.193,2.275c0,0.662-0.249,1.448-0.952,2.151c-2.524,2.524-5.38,3.478-9.228,3.478
	c-7.283,0-12.456-5.215-12.456-14.898C26.498,87.629,31.67,82.413,38.954,82.413z"/>
<path d="M66.979,82.829c6.621,0,9.683,3.93,9.683,8.936c0,4.554-2.069,6.787-5.089,8.111l4.841,7.738
	c0.579,0.95,0.662,1.448,0.662,1.902c0,1.406-0.952,2.275-2.276,2.275c-1.2,0-2.027-0.744-2.524-1.572l-5.834-9.518h-5.503v8.646
	c0,1.447-1.035,2.441-2.442,2.441c-1.448,0-2.441-0.994-2.441-2.441V85.392c0-1.612,0.952-2.562,2.566-2.562H66.979L66.979,82.829z
	 M60.938,87.295v8.938h5.669c3.476,0,5.172-1.405,5.172-4.472c0-3.061-1.697-4.469-5.172-4.469L60.938,87.295L60.938,87.295z"/>
<path d="M103.614,82.829c1.408,0,2.317,0.785,2.317,2.231c0,1.448-0.91,2.233-2.317,2.233H91.241v7.365h9.021
	c1.407,0,2.317,0.786,2.317,2.235c0,1.446-0.91,2.233-2.317,2.233h-9.021v8.192H104.4c1.407,0,2.317,0.785,2.317,2.233
	c0,1.447-0.911,2.234-2.317,2.234H88.923c-1.613,0-2.565-0.951-2.565-2.566V85.391c0-1.612,0.952-2.562,2.565-2.562L103.614,82.829
	L103.614,82.829L103.614,82.829z"/>
<path d="M117.255,109.973c-0.414,1.158-1.242,1.82-2.235,1.82c-1.447,0-2.44-0.951-2.44-2.481c0-0.291,0.082-0.746,0.207-1.117
	l9.062-23.67c0.497-1.282,1.159-1.944,2.276-1.944s1.779,0.662,2.275,1.944l9.062,23.67c0.125,0.371,0.207,0.826,0.207,1.117
	c0,1.53-0.993,2.481-2.442,2.481c-0.993,0-1.82-0.662-2.234-1.82l-2.276-6.082h-9.186L117.255,109.973z M124.124,91.557
	l-2.938,7.863h5.875L124.124,91.557z"/>
<path d="M159.062,82.829c1.404,0,2.314,0.785,2.314,2.231c0,1.448-0.91,2.233-2.314,2.233h-7.036v22.058
	c0,1.446-0.993,2.44-2.44,2.44c-1.448,0-2.441-0.994-2.441-2.44V87.295h-7.035c-1.406,0-2.317-0.785-2.317-2.233
	c0-1.446,0.911-2.231,2.317-2.231L159.062,82.829L159.062,82.829z"/>
<path d="M185.541,82.829c1.408,0,2.317,0.785,2.317,2.231c0,1.448-0.909,2.233-2.317,2.233h-12.371v7.365h9.021
	c1.405,0,2.314,0.786,2.314,2.235c0,1.446-0.912,2.233-2.314,2.233h-9.021v8.192h13.158c1.408,0,2.317,0.785,2.317,2.233
	c0,1.447-0.909,2.234-2.317,2.234H170.85c-1.612,0-2.563-0.951-2.563-2.566V85.391c0-1.612,0.951-2.562,2.563-2.562L185.541,82.829
	L185.541,82.829L185.541,82.829z"/>
<path d="M95.13,133.021l-5.338,18.827c-0.289,0.951-0.662,1.324-1.407,1.324c-0.828,0-1.283-0.455-1.407-1.324l-3.393-25.241
	c-0.041-0.248-0.041-0.412-0.041-0.496c0-1.282,0.62-1.901,1.448-1.901c0.87,0,1.407,0.537,1.532,1.444l2.358,19.699l4.635-16.306
	c0.29-0.992,0.91-1.408,1.614-1.408s1.324,0.416,1.613,1.408l4.635,16.306l2.359-19.699c0.124-0.907,0.662-1.444,1.531-1.444
	c0.828,0,1.448,0.619,1.448,1.901c0,0.084,0,0.248-0.042,0.496l-3.393,25.241c-0.125,0.869-0.58,1.324-1.407,1.324
	c-0.745,0-1.117-0.373-1.407-1.324L95.13,133.021z"/>
<path d="M131.242,124.208c1.034,0,1.862,0.289,1.862,1.406c0,1.116-0.828,1.405-1.862,1.405h-13.615v9.851h10.056
	c1.035,0,1.862,0.289,1.862,1.405c0,1.117-0.827,1.405-1.862,1.405h-10.056v10.677h14.194c1.034,0,1.862,0.291,1.862,1.407
	c0,1.117-0.828,1.406-1.862,1.406h-15.228c-1.159,0-2.028-0.705-2.028-1.944v-25.076c0-1.241,0.869-1.942,2.028-1.942H131.242
	L131.242,124.208z"/>
<path d="M157.737,124.208c1.033,0,1.861,0.289,1.861,1.406c0,1.116-0.828,1.405-1.861,1.405h-13.616v9.851h10.058
	c1.035,0,1.861,0.289,1.861,1.405c0,1.117-0.826,1.405-1.861,1.405h-10.058v10.677h14.194c1.035,0,1.86,0.291,1.86,1.407
	c0,1.117-0.825,1.406-1.86,1.406h-15.228c-1.159,0-2.027-0.705-2.027-1.944v-25.076c0-1.241,0.869-1.942,2.027-1.942H157.737
	L157.737,124.208z"/>
<path d="M178.88,135.296l9.848,15.354c0.25,0.412,0.373,0.909,0.373,1.239c0,0.828-0.662,1.283-1.447,1.283
	c-0.537,0-1.076-0.289-1.531-0.994l-9.27-14.355l-4.717,5.668v7.652c0,1.119-0.334,2.029-1.533,2.029s-1.527-0.91-1.527-2.029
	v-24.909c0-1.116,0.328-2.024,1.527-2.024c1.201,0,1.533,0.908,1.533,2.024v12.912l11.459-14.153
	c0.416-0.537,0.912-0.783,1.408-0.783c0.703,0,1.408,0.453,1.408,1.281c0,0.37-0.168,0.868-0.541,1.323L178.88,135.296z"/>
<path d="M21.891,107.946l-1.372-1.509l0.634-0.521c0.74-0.622,1.072-1.392,1.107-2.052c0.068-1.241-0.788-2.241-1.987-2.307
	c-0.535-0.029-1.208,0.142-1.771,0.607l-1.053,0.856l-0.813-0.909L11.67,96.61c3.807-2.358,5.131-4.554,5.131-7.366
	c0-3.765-2.566-6.828-7.407-6.828c-4.138,0-7.449,2.895-7.449,7.201c0,2.521,1.158,4.385,2.607,6.207
	C0.993,98.429,0,101.036,0,103.808c0,5.13,4.015,8.4,9.228,8.4c3.145,0,5.711-1.118,7.697-2.896l1.366,1.486
	c0.662,0.705,1.448,0.994,2.11,0.994c1.242,0,2.194-0.91,2.194-2.111C22.595,109.145,22.387,108.483,21.891,107.946z M9.394,86.882
	c1.779,0,2.772,1.075,2.772,2.688c0,1.41-0.869,2.403-3.476,3.851c-1.283-1.447-2.111-2.524-2.11-3.809
	C6.58,87.833,7.904,86.882,9.394,86.882z M8.98,107.74c-2.276,0-4.097-1.369-4.097-3.893c0-1.571,0.496-3.061,2.689-4.717
	l6.331,6.91C12.662,107.077,11.048,107.74,8.98,107.74z"/>
</svg>
