<?xml version="1.0" encoding="utf-8"?>
<!-- Generator: Adobe Illustrator 16.0.0, SVG Export Plug-In . SVG Version: 6.00 Build 0)  -->
<!DOCTYPE svg PUBLIC "-//W3C//DTD SVG 1.1//EN" "http://www.w3.org/Graphics/SVG/1.1/DTD/svg11.dtd">
<svg version="1.1" id="Layer_1" xmlns="http://www.w3.org/2000/svg" xmlns:xlink="http://www.w3.org/1999/xlink" x="0px" y="0px"
	 width="295.3px" height="157.147px" viewBox="0 0 295.3 157.147" enable-background="new 0 0 295.3 157.147" xml:space="preserve">
<g>
	<g>
		<polygon points="223.526,157.147 216.839,151.722 215.194,99.166 251.509,38.21 271.216,41.499 279.241,49.889 279.241,88.581 
			286.365,91.321 295.3,113.403 260.45,121.61 253.334,135.661 237.823,136.757 		"/>
		<polyline fill="#1D5FAA" points="264.384,28.074 244.519,61.674 256.504,61.84 245.485,79.825 257.052,79.825 240.063,108.305 
			276.326,70.854 263.156,70.854 275.232,55.606 261.872,55.281 283.796,28.074 		"/>
	</g>
	<path d="M21.931,27.008c0,1.117-0.331,2.028-1.532,2.028c-1.2,0-1.531-0.911-1.531-2.028V7.643L13.53,18.361
		c-0.248,0.455-0.662,1.033-1.572,1.033c-0.911,0-1.324-0.578-1.573-1.033L5.047,7.643v19.365c0,1.117-0.331,2.028-1.532,2.028
		c-1.2,0-1.531-0.911-1.531-2.028V1.973c0-1.24,0.538-1.902,1.448-1.902c0.704,0,1.076,0.247,1.449,0.909l7.076,14.483L19.033,0.98
		c0.372-0.662,0.745-0.909,1.448-0.909c0.91,0,1.449,0.662,1.449,1.902L21.931,27.008L21.931,27.008z"/>
	<path d="M46.878,20.305H36.616l-2.73,7.573c-0.29,0.827-0.828,1.158-1.49,1.158c-0.91,0-1.449-0.62-1.449-1.573
		c0-0.247,0.041-0.496,0.125-0.786l9.435-25.448c0.29-0.829,0.662-1.158,1.242-1.158c0.579,0,0.951,0.33,1.241,1.158l9.435,25.448
		c0.083,0.291,0.125,0.539,0.125,0.786c0,0.953-0.538,1.573-1.449,1.573c-0.662,0-1.2-0.331-1.49-1.158L46.878,20.305z
		 M37.609,17.491h8.276L41.748,5.863L37.609,17.491z"/>
	<path d="M64.663,26.151V2.813h-4.841c-1.034,0-1.862-0.289-1.862-1.406C57.96,0.289,58.788,0,59.822,0h12.745
		c1.035,0,1.862,0.289,1.862,1.407c0,1.117-0.827,1.406-1.862,1.406h-4.841v23.338h4.841c1.035,0,1.862,0.291,1.862,1.407
		c0,1.117-0.827,1.406-1.862,1.406H59.822c-1.034,0-1.862-0.289-1.862-1.406s0.828-1.407,1.862-1.407H64.663z"/>
	<path d="M83.314,2.097c0-1.118,0.538-2.027,1.696-2.027c0.952,0,1.324,0.414,1.779,1.034l12.58,21.642V2.097
		c0-1.118,0.331-2.027,1.531-2.027c1.2,0,1.531,0.909,1.531,2.027v24.911c0,1.117-0.538,2.028-1.696,2.028
		c-0.952,0-1.324-0.414-1.78-1.035L86.375,6.359v20.649c0,1.117-0.331,2.028-1.531,2.028c-1.2,0-1.531-0.911-1.531-2.028
		L83.314,2.097L83.314,2.097z"/>
	<path d="M130.012,0.07c1.034,0,1.862,0.289,1.862,1.407c0,1.117-0.828,1.406-1.862,1.406h-13.615v9.849h10.056
		c1.035,0,1.862,0.289,1.862,1.407c0,1.117-0.827,1.406-1.862,1.406h-10.056v10.676h14.194c1.034,0,1.863,0.291,1.863,1.408
		s-0.829,1.407-1.863,1.407h-15.228c-1.159,0-2.027-0.704-2.027-1.944V2.015c0-1.242,0.869-1.944,2.027-1.944h14.649V0.07z"/>
	<path d="M0.33,64.082c0-1.406,0.911-2.482,2.524-2.482c0.911,0,1.573,0.331,2.069,1.035c1.655,2.441,3.559,3.725,7.2,3.725
		c3.601,0,5.711-1.615,5.711-3.973c0-6.993-16.428-2.11-16.428-13.034c0-5.671,4.966-8.318,10.262-8.318
		c4.594,0,7.614,1.407,9.435,4.47c0.331,0.58,0.497,1.118,0.497,1.613c0,1.655-1.035,2.483-2.442,2.483
		c-0.745,0-1.572-0.455-2.069-1.283c-1.241-1.986-2.938-2.813-5.42-2.813c-3.187,0-5.379,1.2-5.379,3.767
		c0,5.792,16.428,2.192,16.428,12.786c0,5.875-4.966,8.772-10.594,8.772c-5.503,0-8.896-1.613-11.172-4.967
		C0.537,65.243,0.33,64.622,0.33,64.082z"/>
	<path d="M47.768,41.449c1.406,0,2.317,0.785,2.317,2.232c0,1.448-0.911,2.235-2.317,2.235h-7.035v22.056
		c0,1.449-0.993,2.441-2.441,2.441c-1.449,0-2.442-0.992-2.442-2.441V45.917h-7.035c-1.407,0-2.317-0.787-2.317-2.235
		s0.911-2.232,2.317-2.232H47.768z"/>
	<path d="M56.224,68.594c-0.413,1.158-1.242,1.82-2.235,1.82c-1.448,0-2.441-0.951-2.441-2.482c0-0.291,0.083-0.745,0.207-1.116
		l9.062-23.67c0.496-1.282,1.158-1.944,2.276-1.944c1.117,0,1.779,0.662,2.275,1.944l9.062,23.67
		c0.125,0.371,0.207,0.825,0.207,1.116c0,1.531-0.993,2.482-2.441,2.482c-0.993,0-1.82-0.662-2.234-1.82l-2.276-6.083H58.5
		L56.224,68.594z M63.094,50.179l-2.938,7.863h5.875L63.094,50.179z"/>
	<path d="M93.821,41.449c6.621,0,9.683,3.931,9.683,8.937c0,4.553-2.069,6.787-5.089,8.111l4.841,7.738
		c0.579,0.951,0.662,1.448,0.662,1.903c0,1.406-0.952,2.275-2.276,2.275c-1.2,0-2.027-0.744-2.524-1.572l-5.834-9.517h-5.503v8.646
		c0,1.449-1.035,2.441-2.441,2.441c-1.449,0-2.442-0.992-2.442-2.441V44.013c0-1.612,0.952-2.563,2.566-2.563H93.821L93.821,41.449z
		 M87.779,45.917v8.938h5.669c3.476,0,5.172-1.406,5.172-4.471c0-3.062-1.696-4.468-5.172-4.468H87.779z"/>
	<path d="M130.137,41.449c1.406,0,2.317,0.785,2.317,2.232c0,1.448-0.911,2.235-2.317,2.235h-7.035v22.056
		c0,1.449-0.993,2.441-2.441,2.441c-1.448,0-2.441-0.992-2.441-2.441V45.917h-7.035c-1.407,0-2.317-0.787-2.317-2.235
		s0.911-2.232,2.317-2.232H130.137z"/>
	<path d="M160.384,59.366c0,6.662-3.229,11.463-10.801,11.463c-7.572,0-10.8-4.801-10.8-11.463V43.889
		c0-1.447,0.993-2.439,2.442-2.439c1.448,0,2.441,0.992,2.441,2.439v15.644c0,4.509,2.524,6.828,5.917,6.828
		c3.395,0,5.918-2.318,5.918-6.828V43.889c0-1.447,0.991-2.439,2.44-2.439c1.448,0,2.44,0.992,2.44,2.439v15.478H160.384z"/>
	<path d="M179.376,41.449c6.952,0,10.512,3.227,10.512,9.145c0,5.917-3.56,9.146-10.512,9.146h-5.712v8.233
		c0,1.449-1.034,2.441-2.44,2.441c-1.448,0-2.441-0.992-2.441-2.441V44.014c0-1.612,0.953-2.563,2.566-2.563L179.376,41.449
		L179.376,41.449z M173.664,45.917v9.352h6.002c3.888,0,5.337-1.779,5.337-4.675c0-2.896-1.449-4.677-5.337-4.677H173.664z"/>
	<path d="M16.925,109.312c-1.986,1.778-4.552,2.896-7.697,2.896c-5.213,0-9.228-3.27-9.228-8.4c0-2.772,0.993-5.379,4.552-7.985
		c-1.449-1.822-2.607-3.685-2.607-6.207c0-4.306,3.311-7.201,7.449-7.201c4.841,0,7.407,3.064,7.407,6.828
		c0,2.813-1.324,5.008-5.131,7.367l4.966,5.502c0.703-1.654,1.034-3.435,1.159-4.758c0.125-1.406,1.076-2.029,2.069-2.029
		c1.076,0,2.11,0.746,2.11,2.192c0,2.566-0.703,5.546-2.152,8.152l2.069,2.277c0.496,0.537,0.704,1.199,0.704,1.735
		c0,1.201-0.952,2.111-2.194,2.111c-0.662,0-1.448-0.289-2.11-0.994L16.925,109.312z M13.903,106.041l-6.331-6.91
		c-2.193,1.656-2.689,3.146-2.689,4.717c0,2.523,1.821,3.892,4.097,3.892C11.048,107.739,12.662,107.077,13.903,106.041z
		 M8.69,93.42c2.607-1.447,3.476-2.44,3.476-3.85c0-1.613-0.993-2.688-2.772-2.688c-1.49,0-2.814,0.951-2.814,2.73
		C6.579,90.896,7.407,91.973,8.69,93.42z"/>
	<path d="M39.906,82.413c3.848,0,6.704,0.953,9.228,3.477c0.703,0.703,0.952,1.49,0.952,2.152c0,1.324-0.993,2.275-2.193,2.275
		c-0.621,0-1.242-0.289-1.863-0.91c-1.862-1.861-3.848-2.523-6.124-2.523c-5.297,0-7.49,5.297-7.49,10.426
		c0,5.134,2.193,10.431,7.49,10.431c2.276,0,4.262-0.662,6.124-2.523c0.621-0.623,1.242-0.912,1.863-0.912
		c1.2,0,2.193,0.951,2.193,2.275c0,0.662-0.249,1.449-0.952,2.152c-2.524,2.524-5.38,3.477-9.228,3.477
		c-7.283,0-12.456-5.215-12.456-14.898S32.622,82.413,39.906,82.413z"/>
	<path d="M68.093,82.829c6.621,0,9.683,3.93,9.683,8.936c0,4.554-2.069,6.787-5.089,8.111l4.841,7.738
		c0.579,0.951,0.662,1.449,0.662,1.903c0,1.406-0.952,2.275-2.276,2.275c-1.2,0-2.027-0.744-2.524-1.572l-5.834-9.518h-5.503v8.647
		c0,1.447-1.035,2.441-2.442,2.441c-1.448,0-2.441-0.994-2.441-2.441V85.392c0-1.612,0.952-2.563,2.566-2.563L68.093,82.829
		L68.093,82.829z M62.052,87.295v8.939h5.669c3.476,0,5.172-1.406,5.172-4.472c0-3.061-1.697-4.469-5.172-4.469L62.052,87.295
		L62.052,87.295z"/>
	<path d="M103.395,82.829c1.408,0,2.317,0.785,2.317,2.232c0,1.448-0.91,2.233-2.317,2.233H91.022v7.365h9.021
		c1.407,0,2.317,0.787,2.317,2.236c0,1.446-0.91,2.233-2.317,2.233h-9.021v8.193h13.159c1.407,0,2.317,0.785,2.317,2.233
		c0,1.447-0.911,2.234-2.317,2.234H88.704c-1.613,0-2.565-0.951-2.565-2.566V85.391c0-1.612,0.952-2.563,2.565-2.563h14.691V82.829z
		"/>
	<path d="M117.255,109.973c-0.414,1.158-1.242,1.82-2.235,1.82c-1.447,0-2.44-0.951-2.44-2.481c0-0.291,0.082-0.746,0.207-1.117
		l9.062-23.67c0.497-1.283,1.159-1.945,2.276-1.945c1.117,0,1.779,0.662,2.275,1.945l9.062,23.67
		c0.125,0.371,0.207,0.826,0.207,1.117c0,1.53-0.993,2.481-2.442,2.481c-0.993,0-1.82-0.662-2.234-1.82l-2.276-6.082h-9.186
		L117.255,109.973z M124.124,91.557l-2.938,7.863h5.875L124.124,91.557z"/>
	<path d="M159.062,82.829c1.404,0,2.314,0.785,2.314,2.232c0,1.448-0.91,2.233-2.314,2.233h-7.036v22.058
		c0,1.446-0.993,2.44-2.441,2.44c-1.448,0-2.441-0.994-2.441-2.44V87.295h-7.035c-1.406,0-2.317-0.785-2.317-2.233
		c0-1.447,0.911-2.232,2.317-2.232H159.062z"/>
	<path d="M185.541,82.829c1.408,0,2.317,0.785,2.317,2.232c0,1.448-0.909,2.233-2.317,2.233H173.17v7.365h9.021
		c1.405,0,2.315,0.787,2.315,2.236c0,1.446-0.912,2.233-2.315,2.233h-9.021v8.193h13.158c1.408,0,2.317,0.785,2.317,2.233
		c0,1.447-0.909,2.234-2.317,2.234h-15.478c-1.612,0-2.563-0.951-2.563-2.566V85.391c0-1.612,0.951-2.563,2.563-2.563h14.69V82.829z
		"/>
	<path d="M95.13,133.021l-5.338,18.827c-0.289,0.951-0.662,1.324-1.407,1.324c-0.828,0-1.283-0.455-1.407-1.324l-3.393-25.241
		c-0.041-0.248-0.041-0.412-0.041-0.496c0-1.283,0.62-1.902,1.448-1.902c0.87,0,1.407,0.537,1.532,1.445l2.358,19.699l4.635-16.306
		c0.29-0.992,0.91-1.408,1.614-1.408c0.704,0,1.324,0.416,1.613,1.408l4.635,16.306l2.359-19.699
		c0.124-0.908,0.662-1.445,1.531-1.445c0.828,0,1.448,0.619,1.448,1.902c0,0.084,0,0.248-0.042,0.496l-3.393,25.241
		c-0.125,0.869-0.58,1.324-1.407,1.324c-0.745,0-1.117-0.373-1.407-1.324L95.13,133.021z"/>
	<path d="M131.242,124.208c1.034,0,1.862,0.289,1.862,1.406s-0.828,1.406-1.862,1.406h-13.615v9.85h10.056
		c1.035,0,1.862,0.289,1.862,1.406s-0.827,1.405-1.862,1.405h-10.056v10.677h14.194c1.034,0,1.862,0.291,1.862,1.407
		c0,1.117-0.828,1.406-1.862,1.406h-15.228c-1.159,0-2.028-0.705-2.028-1.944v-25.076c0-1.242,0.869-1.943,2.028-1.943H131.242
		L131.242,124.208z"/>
	<path d="M157.737,124.208c1.033,0,1.861,0.289,1.861,1.406s-0.828,1.406-1.861,1.406h-13.616v9.85h10.058
		c1.035,0,1.861,0.289,1.861,1.406s-0.826,1.405-1.861,1.405h-10.058v10.677h14.194c1.035,0,1.861,0.291,1.861,1.407
		c0,1.117-0.826,1.406-1.861,1.406h-15.228c-1.159,0-2.027-0.705-2.027-1.944v-25.076c0-1.242,0.869-1.943,2.027-1.943H157.737
		L157.737,124.208z"/>
	<path d="M178.88,135.296l9.848,15.354c0.25,0.412,0.373,0.909,0.373,1.239c0,0.828-0.662,1.283-1.447,1.283
		c-0.538,0-1.076-0.289-1.531-0.994l-9.27-14.356l-4.717,5.668v7.653c0,1.119-0.334,2.029-1.533,2.029s-1.528-0.91-1.528-2.029
		v-24.909c0-1.117,0.329-2.025,1.528-2.025c1.201,0,1.533,0.908,1.533,2.025v12.912l11.459-14.154
		c0.416-0.537,0.912-0.783,1.408-0.783c0.703,0,1.408,0.453,1.408,1.281c0,0.371-0.168,0.869-0.54,1.324L178.88,135.296z"/>
</g>
</svg>
