<?xml version="1.0" encoding="utf-8"?>
<!-- Generator: Adobe Illustrator 16.0.0, SVG Export Plug-In . SVG Version: 6.00 Build 0)  -->
<!DOCTYPE svg PUBLIC "-//W3C//DTD SVG 1.1//EN" "http://www.w3.org/Graphics/SVG/1.1/DTD/svg11.dtd">
<svg version="1.1" id="Layer_1" xmlns="http://www.w3.org/2000/svg" xmlns:xlink="http://www.w3.org/1999/xlink" x="0px" y="0px"
	 width="18px" height="13.011px" viewBox="0 0 18 13.011" enable-background="new 0 0 18 13.011" xml:space="preserve">
<g>
	<path fill="#FFFFFF" d="M16,0.069H2c-0.955,0-1.751,0.671-1.949,1.566l7.115,5.191l0.872,0.637L8.993,8.16l0.948-0.725l0.854-0.652
		l7.074-5.409C17.585,0.613,16.859,0.069,16,0.069z"/>
	<path fill="#FFFFFF" d="M10.86,7.991l-1.557,1.19C9.214,9.25,9.107,9.284,9,9.284c-0.104,0-0.207-0.031-0.295-0.096L7.119,8.031
		l-6.762,4.175c0.36,0.521,0.961,0.863,1.643,0.863h14c0.717,0,1.34-0.38,1.693-0.946L10.86,7.991z"/>
	<path fill="#FFFFFF" d="M0,2.837v8.232c0,0.059,0.012,0.113,0.018,0.172l6.229-3.847L0,2.837z"/>
	<path fill="#FFFFFF" d="M18,2.531l-6.287,4.807l6.28,3.797C17.994,11.113,18,11.093,18,11.069V2.531z"/>
</g>
</svg>
