<?xml version="1.0" encoding="utf-8"?>
<!-- Generator: Adobe Illustrator 16.0.0, SVG Export Plug-In . SVG Version: 6.00 Build 0)  -->
<!DOCTYPE svg PUBLIC "-//W3C//DTD SVG 1.1//EN" "http://www.w3.org/Graphics/SVG/1.1/DTD/svg11.dtd">
<svg version="1.1" id="Layer_1" xmlns="http://www.w3.org/2000/svg" xmlns:xlink="http://www.w3.org/1999/xlink" x="0px" y="0px"
	 width="14px" height="14px" viewBox="0 0 14 14" enable-background="new 0 0 14 14" xml:space="preserve">
<g id="Icons_4_">
	<g id="Black_4_" transform="translate(-200.000000, -160.000000)">
		<path id="Facebook_1_" fill="#FFFFFF" d="M207.479,174h-6.705c-0.428,0-0.773-0.346-0.773-0.773v-12.453
			c0-0.428,0.346-0.773,0.773-0.773h12.455c0.426,0,0.771,0.346,0.771,0.773v12.453c0,0.428-0.346,0.773-0.771,0.773h-3.568v-5.422
			h1.819l0.273-2.112h-2.093v-1.349c0-0.611,0.17-1.029,1.047-1.029h1.119v-1.889c-0.193-0.027-0.857-0.084-1.631-0.084
			c-1.613,0-2.717,0.984-2.717,2.793v1.558h-1.824v2.112h1.824V174L207.479,174z"/>
	</g>
</g>
</svg>
