<?xml version="1.0" encoding="utf-8"?>
<!-- Generator: Adobe Illustrator 16.0.0, SVG Export Plug-In . SVG Version: 6.00 Build 0)  -->
<!DOCTYPE svg PUBLIC "-//W3C//DTD SVG 1.1//EN" "http://www.w3.org/Graphics/SVG/1.1/DTD/svg11.dtd">
<svg version="1.1" id="Layer_1" xmlns="http://www.w3.org/2000/svg" xmlns:xlink="http://www.w3.org/1999/xlink" x="0px" y="0px"
	 width="16.801px" height="14px" viewBox="0 0 16.801 14" enable-background="new 0 0 16.801 14" xml:space="preserve">
<g id="Icons_2_">
	<g id="Black_2_" transform="translate(-300.000000, -164.000000)">
		<path id="Twitter_1_" fill="#FFFFFF" d="M316.801,165.657c-0.619,0.281-1.283,0.472-1.98,0.556
			c0.713-0.436,1.259-1.129,1.516-1.953c-0.666,0.403-1.402,0.698-2.19,0.855c-0.626-0.687-1.522-1.115-2.515-1.115
			c-1.902,0-3.445,1.582-3.445,3.534c0,0.277,0.029,0.546,0.089,0.805c-2.864-0.147-5.403-1.553-7.104-3.694
			c-0.297,0.525-0.467,1.133-0.467,1.779c0,1.226,0.608,2.308,1.533,2.941c-0.563-0.018-1.097-0.178-1.562-0.44v0.044
			c0,1.712,1.188,3.141,2.766,3.465c-0.288,0.082-0.594,0.125-0.908,0.125c-0.222,0-0.438-0.021-0.648-0.063
			c0.438,1.403,1.71,2.426,3.22,2.454c-1.18,0.947-2.666,1.513-4.281,1.513c-0.277,0-0.553-0.017-0.822-0.048
			c1.525,1,3.338,1.586,5.283,1.586c6.341,0,9.807-5.385,9.807-10.055c0-0.154-0.003-0.309-0.008-0.459
			C315.755,166.988,316.339,166.366,316.801,165.657"/>
	</g>
</g>
</svg>
