<?xml version="1.0" encoding="utf-8"?>
<!-- Generator: Adobe Illustrator 16.0.0, SVG Export Plug-In . SVG Version: 6.00 Build 0)  -->
<!DOCTYPE svg PUBLIC "-//W3C//DTD SVG 1.1//EN" "http://www.w3.org/Graphics/SVG/1.1/DTD/svg11.dtd">
<svg version="1.1" id="Layer_1" xmlns="http://www.w3.org/2000/svg" xmlns:xlink="http://www.w3.org/1999/xlink" x="0px" y="0px"
	 width="16.801px" height="14px" viewBox="0 0 16.801 14" enable-background="new 0 0 16.801 14" xml:space="preserve">
<g id="Icons_3_">
	<g id="Black_3_" transform="translate(-200.000000, -368.000000)">
		<path id="Youtube_12_" fill="#FFFFFF" d="M206.738,377.057v-4.7l4.486,2.358L206.738,377.057z M216.59,371.542
			c0,0-0.162-1.151-0.658-1.658c-0.632-0.667-1.341-0.671-1.664-0.709c-2.324-0.168-5.811-0.168-5.811-0.168h-0.008
			c0,0-3.485,0-5.809,0.168c-0.325,0.038-1.033,0.042-1.665,0.709c-0.497,0.507-0.659,1.658-0.659,1.658s-0.167,1.354-0.167,2.707
			v1.269c0,1.354,0.167,2.708,0.167,2.708s0.162,1.15,0.659,1.659c0.632,0.666,1.462,0.646,1.832,0.715
			c1.329,0.129,5.646,0.168,5.646,0.168s3.49-0.005,5.814-0.175c0.323-0.038,1.032-0.042,1.664-0.708
			c0.496-0.509,0.658-1.659,0.658-1.659s0.167-1.354,0.167-2.708v-1.269C216.757,372.896,216.59,371.542,216.59,371.542
			L216.59,371.542z"/>
	</g>
</g>
</svg>
